# xmcd
#
# Track frame offsets: 
#        150
#        14847
#        29741
#        45031
#        59364
#        74551
#        88653
#        103943
#        117320
#        133697
#        149112
#        164481
#        179422
#        193771
#        208687
#        222724
#        237851
#        252338
#        266770
#        282453
#        296167
#        311013
#        326597
#        339263
#
# Disc length: 4717 seconds
#
# Revision: 0
# Processed by: cddbd v1.5.2PL0 Copyright (c) Steve Scherf et al.
# Submitted via: ExactAudioCopy v1.3
#
DISCID=94126b18
DTITLE=永田絃次郎 - 伝説の名テノール 永田絃次郎の遺産 Disc 2
DYEAR=2015
DGENRE=Terror
TTITLE0=箱根八里
TTITLE1=永田絃次郎,長門美保 - 船頭唄
TTITLE2=永田絃次郎,長門美保 - 黒潮浴びて
TTITLE3=永田絃次郎,長門美保 - 浜の勝鬨
TTITLE4=永田絃次郎,長門美保 - 江差追分
TTITLE5=永田絃次郎,長門美保 - 佐渡おけさ
TTITLE6=永田絃次郎,長門美保 - 木曽節
TTITLE7=永田絃次郎,長門美保 - 忍路
TTITLE8=永田絃次郎,長門美保 - 苗や苗
TTITLE9=永田絃次郎,長門美保 - 寂念寺
TTITLE10=永田絃次郎,長門美保 - 霧
TTITLE11=永田絃次郎,長門美保 - 日本万国博覧会行進曲
TTITLE12=逞しき街
TTITLE13=よろこびの歌
TTITLE14=花咲く丘
TTITLE15=出征航路
TTITLE16=永田絃次郎永田絃次郎,長門美保 - 愛国行進曲
TTITLE17=永田絃次郎,長門美保 - 愛馬進軍歌
TTITLE18=永田絃次郎,長門美保 - 出征兵士を送る歌
TTITLE19=永田絃次郎,長門美保 - 紀元二千六百年
TTITLE20=諸君頼む！！
TTITLE21=永田絃次郎,長門美保 - やすらかに
TTITLE22=地平の果まで
TTITLE23=少年戦車兵
EXTD=
EXTT0=
EXTT1=
EXTT2=
EXTT3=
EXTT4=
EXTT5=
EXTT6=
EXTT7=
EXTT8=
EXTT9=
EXTT10=
EXTT11=
EXTT12=
EXTT13=
EXTT14=
EXTT15=
EXTT16=
EXTT17=
EXTT18=
EXTT19=
EXTT20=
EXTT21=
EXTT22=
EXTT23=
PLAYORDER=
